<?xml version="1.0" encoding="utf-8"?>
<!-- Generator: Adobe Illustrator 28.3.0, SVG Export Plug-In . SVG Version: 6.00 Build 0)  -->
<svg version="1.1" id="Layer_1" xmlns="http://www.w3.org/2000/svg" xmlns:xlink="http://www.w3.org/1999/xlink" x="0px" y="0px"
	 viewBox="0 0 864 864" style="enable-background:new 0 0 864 864;" xml:space="preserve">
<style type="text/css">
	.st0{fill:url(#SVGID_1_);}
	.st1{fill:url(#SVGID_00000030470334884813752440000017020573629510245794_);}
	.st2{fill:#4EBE16;}
	.st3{fill:url(#SVGID_00000134928063410020628660000007615380625136820875_);}
	.st4{fill:#248740;}
	.st5{fill:#0C1376;}
</style>
<g>
	<g>
		<path d="M220.31,348.5c21.67,0,29.93,1.29,38.37,5.88c11.02,5.88,17.44,17.63,17.44,31.76c0,15.97-7.34,27.54-21.66,33.97
			l28.09,50.86H255.2l-24.97-46.82h-16.89v46.82h-23.5V348.5H220.31z M221.78,404.13c11.57,0,15.42-0.37,20.01-2.02
			c6.43-2.39,10.28-8.45,10.28-16.16c0-6.24-2.75-11.38-7.89-14.32c-4.77-2.75-8.08-3.12-24.05-3.12h-6.79v35.62H221.78z"/>
		<path d="M387.57,407.81v50.86c-14.14,9.91-28.64,14.69-44.8,14.69c-34.89,0-56.55-24.24-56.55-63.53
			c0-38.37,21.66-63.71,54.71-63.71c15.42,0,28.83,6.06,36.9,16.52c5.14,6.79,7.34,13.95,7.89,25.34h-20.2
			c-2.02-14.32-10.1-21.48-24.24-21.48c-19.28,0-30.66,16.16-30.66,43.51c0,27.36,11.57,42.96,31.95,42.96
			c8.45,0,18.54-3.12,25.52-8.08v-19.65h-24.42v-17.44H387.57z"/>
		<path d="M465.6,384.49c-0.92-11.38-8.26-17.99-20.01-17.99c-10.1,0-17.81,5.69-17.81,13.22c0,3.86,2.2,7.16,6.24,9.36
			c3.49,1.84,3.49,1.84,20.2,8.45c21.48,8.81,24.42,10.28,29.56,15.97c5.14,5.51,7.89,13.22,7.89,22.03
			c0,23.32-16.89,37.82-43.7,37.82c-30.11,0-46.64-15.24-47.74-44.07H423c1.47,15.79,9.92,23.69,25.15,23.69
			c11.57,0,19.46-5.32,19.46-13.04c0-4.77-2.75-8.63-8.45-11.75c-3.31-1.84-3.31-1.84-21.12-9.18c-14.14-6.06-21.11-10.1-25.7-15.06
			c-5.32-6.06-8.08-13.59-8.08-21.85c0-21.11,17.26-35.99,41.86-35.99c15.61,0,28.64,6.24,35.99,17.08
			c3.85,5.88,5.51,11.57,6.06,21.3H465.6z"/>
		<path d="M587.32,427.45c0,26.62-17.99,45.9-42.96,45.9c-25.52,0-43.15-19.1-43.15-46.64c0-26.07,18.36-45.35,43.15-45.35
			C569.33,381.37,587.32,400.65,587.32,427.45z M524.35,427.09c0,16.89,7.9,28.09,20.01,28.09c11.75,0,19.83-11.38,19.83-27.91
			c0-16.34-8.08-27.72-19.83-27.72C532.61,399.55,524.35,410.93,524.35,427.09z"/>
		<path d="M622.39,383.75c1.28,2.75,1.84,6.43,1.84,11.2c6.43-8.63,15.24-13.04,25.89-13.04c10.83,0,20.38,4.77,24.97,12.67
			c3.31,5.88,4.04,10.28,4.04,26.07v50.31h-22.58v-45.35c0-9.18-0.55-13.59-2.2-16.89c-2.2-4.59-6.43-6.98-11.93-6.98
			c-6.43,0-12.12,3.49-14.51,9.36c-1.65,3.31-2.02,6.98-2.02,15.24v44.62h-22.58v-56v-6.98c0-12.85-0.37-16.71-2.75-24.24H622.39z"
			/>
	</g>
	<g>
		
			<linearGradient id="SVGID_1_" gradientUnits="userSpaceOnUse" x1="2062.1396" y1="32.2367" x2="2132.2212" y2="32.2367" gradientTransform="matrix(-1.3828 0.2904 0.2056 0.9786 3212.2681 -55.6033)">
			<stop  offset="0" style="stop-color:#FF4B2D"/>
			<stop  offset="1" style="stop-color:#F39C12"/>
		</linearGradient>
		<path class="st0" d="M325.73,580.92c2.66,0.88,5.24,1.74,7.71,2.52c0.28,0.09,20.89,6.58,38.19,11.32
			c-0.6,0.01-1.21,0.02-1.81,0.03c-0.38,0-0.76,0.01-1.14,0.01c-3.01,0.02-5.97,0-8.86-0.06c-0.21,0-0.43-0.01-0.64-0.01
			c-1.25-0.03-2.5-0.06-3.72-0.1c-0.25-0.01-0.5-0.02-0.74-0.03c-1.31-0.04-2.59-0.1-3.86-0.15c-0.08,0-0.16-0.01-0.23-0.01
			c-2.82-0.13-5.53-0.28-8.09-0.45c-0.08-0.01-0.16-0.01-0.25-0.02c-1.19-0.08-2.35-0.16-3.47-0.24c-0.1-0.01-0.2-0.01-0.31-0.02
			c-3.57-0.27-6.79-0.54-9.57-0.8c-0.13-0.01-0.25-0.02-0.37-0.03c-0.81-0.08-1.58-0.15-2.3-0.22c-0.1-0.01-0.2-0.02-0.29-0.03
			c-0.78-0.08-1.52-0.15-2.2-0.21c-6.55-0.64-14.13-2.87-22.91-5.46c-10.06-2.96-21.31-6.27-33.72-7.92
			c2.76-3.15,7.38-5.43,13.84-6.79C294.89,570.68,311.27,576.12,325.73,580.92z"/>
		
			<linearGradient id="SVGID_00000097499622492272255690000001800939762719839640_" gradientUnits="userSpaceOnUse" x1="1830.394" y1="68.181" x2="2153.1558" y2="68.181" gradientTransform="matrix(-1.3828 0.2904 0.2056 0.9786 3212.2681 -55.6033)">
			<stop  offset="0" style="stop-color:#FF4B2D"/>
			<stop  offset="1" style="stop-color:#F39C12"/>
		</linearGradient>
		<path style="fill:url(#SVGID_00000097499622492272255690000001800939762719839640_);" d="M255.05,583.63
			c1.76-0.37,3.52-0.48,5.24-0.32c13.68,1.25,26.26,4.96,37.35,8.22c9.14,2.69,17.05,5.02,24.35,5.73
			c11.78,1.15,48.59,11.02,75.9,9.43c18.83-1.1,42.46-6.58,51.66-9.13c10.61-2.95,21.59-6.22,31.76-9.47
			c41.85-13.33,45.09-18.15,46.16-19.74c1.55-2.3,0.65-3.68-0.03-4.3c-2.08-1.9-10.69-3.43-14.79-2.57
			c-9.42,1.98-24.37,7.4-24.37,7.4c-0.11,0.05-11.64,5.29-24.41,7.97c-6.6,1.39-12.35,1.85-17.09,1.39
			c-1.17-0.11-2.33-0.3-3.46-0.54c-4.26-0.95-9.29-2.79-8.94-6.11c0.25-2.43,3.25-4.78,4.5-5.16c2.16-0.66,9.05-3.32,21.05-7.96
			c13.24-5.13,29.71-11.51,40.34-15.26c3.45-1.21,7.11-2.59,10.99-4.05c12.29-4.63,26.22-9.88,41.82-13.15
			c7.27-1.53,14.12-2.47,20.95-2.89l4.3-0.27c28.77-1.8,55.95-3.51,81.76,17.13c3.8,3.04,6.94,6.42,10.27,10.01
			c5.45,5.86,4.74,4.84,13.56,9.43c5.15,2.68,15.99,9.17,17.52,12.55c-2.06,2.24-13.49,2.92-42.34,6.31
			c-74.93,8.8-108.36,46.09-173.62,60.08c-47.74,10.23-117.3,12.82-202.9-25.3c-11.84-5.27-35.25-16.41-42.73-20.12
			C242.52,590.15,248.17,585.08,255.05,583.63z"/>
	</g>
	<path class="st2" d="M374.78,516.79c0,0,19.03-4.27,38.84-12.04c19.81-7.77,29.52-13.98,38.45-14.37
		c8.93-0.39,25.63,5.05,25.63,5.05S419.84,517.17,374.78,516.79z"/>
	
		<linearGradient id="SVGID_00000111182703537072820920000009842282818805502374_" gradientUnits="userSpaceOnUse" x1="-2699.2776" y1="525.5668" x2="-2316.6995" y2="525.5668" gradientTransform="matrix(1 0 0 1 2830.5308 0)">
		<stop  offset="0" style="stop-color:#248740"/>
		<stop  offset="1" style="stop-color:#4EBE16"/>
	</linearGradient>
	<path style="fill:url(#SVGID_00000111182703537072820920000009842282818805502374_);" d="M131.25,507.46c0,0,20.59-20.2,57.1-19.42
		c36.51,0.78,108.75,36.51,153.81,40.78c45.05,4.27,143.32-29.52,143.32-29.52s11.65-6.6,20.2-1.55s8.16,7.77,8.16,7.77
		s-77.68,50.49-172.45,57.1C246.61,569.22,131.25,507.46,131.25,507.46z"/>
	<path class="st4" d="M809.64,398.12C792.75,207.44,632.8,57.87,437.72,57.87c-206.34,0-373.6,167.27-373.6,373.6
		c0,8.73,0.41,17.37,1,25.95h52.24c-0.34-6.22-0.53-12.49-0.53-18.79c0-190.93,139.22-345.72,331.99-345.72
		c178.91,0,326.2,133.38,346.47,305.2H809.64z"/>
	<path class="st5" d="M810.19,416.64h-52.24c0.34,6.22,0.53,12.49,0.53,18.79c0,190.93-139.22,345.72-331.99,345.72
		c-178.83,0-326.07-133.26-346.45-304.96H65.69c17,190.57,176.9,340.01,371.9,340.01c206.34,0,373.6-167.27,373.6-373.6
		C811.19,433.86,810.78,425.22,810.19,416.64z"/>
</g>
</svg>
